<?xml version="1.0" encoding="utf-8"?>
<!-- Generated by IcoMoon.io -->
<!DOCTYPE svg PUBLIC "-//W3C//DTD SVG 1.1//EN" "http://www.w3.org/Graphics/SVG/1.1/DTD/svg11.dtd">
<svg version="1.1" xmlns="http://www.w3.org/2000/svg" xmlns:xlink="http://www.w3.org/1999/xlink" width="752" height="32" viewBox="0 0 752 32">
<svg id="icon-video-fullscreen-exit" width="32" height="32" viewBox="0 0 32 32" x="0" y="0">
<path fill="#fff" d="M6.667 21.333h4v4h2.667v-6.667h-6.667v2.667zM10.667 10.667h-4v2.667h6.667v-6.667h-2.667v4zM18.667 25.333h2.667v-4h4v-2.667h-6.667v6.667zM21.333 10.667v-4h-2.667v6.667h6.667v-2.667h-4z"></path>
</svg>
<svg id="icon-video-fullscreen" width="32" height="32" viewBox="0 0 32 32" x="48" y="0">
<path fill="#fff" d="M9.333 18.667h-2.667v6.667h6.667v-2.667h-4v-4zM6.667 13.333h2.667v-4h4v-2.667h-6.667v6.667zM22.667 22.667h-4v2.667h6.667v-6.667h-2.667v4zM18.667 6.667v2.667h4v4h2.667v-6.667h-6.667z"></path>
</svg>
<svg id="icon-video-pause" width="32" height="32" viewBox="0 0 32 32" x="96" y="0">
<path fill="#fff" d="M8 25.333h5.333v-18.667h-5.333v18.667zM18.667 6.667v18.667h5.333v-18.667h-5.333z"></path>
</svg>
<svg id="icon-video-play" width="32" height="32" viewBox="0 0 32 32" x="144" y="0">
<path fill="#fff" d="M10.667 6.667v18.667l14.667-9.333z"></path>
</svg>
<svg id="icon-video-settings" width="32" height="32" viewBox="0 0 32 32" x="192" y="0">
<path fill="#fff" d="M25.907 17.307c0.053-0.427 0.093-0.853 0.093-1.307s-0.040-0.88-0.093-1.307l2.813-2.2c0.253-0.2 0.32-0.56 0.16-0.853l-2.667-4.613c-0.16-0.293-0.52-0.4-0.813-0.293l-3.32 1.333c-0.693-0.533-1.44-0.973-2.253-1.307l-0.507-3.533c-0.040-0.32-0.32-0.56-0.653-0.56h-5.333c-0.333 0-0.613 0.24-0.653 0.56l-0.507 3.533c-0.813 0.333-1.56 0.787-2.253 1.307l-3.32-1.333c-0.307-0.12-0.653 0-0.813 0.293l-2.667 4.613c-0.173 0.293-0.093 0.653 0.16 0.853l2.813 2.2c-0.053 0.427-0.093 0.867-0.093 1.307s0.040 0.88 0.093 1.307l-2.813 2.2c-0.253 0.2-0.32 0.56-0.16 0.853l2.667 4.613c0.16 0.293 0.52 0.4 0.813 0.293l3.32-1.333c0.693 0.533 1.44 0.973 2.253 1.307l0.507 3.533c0.040 0.32 0.32 0.56 0.653 0.56h5.333c0.333 0 0.613-0.24 0.653-0.56l0.507-3.533c0.813-0.333 1.56-0.787 2.253-1.307l3.32 1.333c0.307 0.12 0.653 0 0.813-0.293l2.667-4.613c0.16-0.293 0.093-0.653-0.16-0.853l-2.813-2.2zM16 20.667c-2.573 0-4.667-2.093-4.667-4.667s2.093-4.667 4.667-4.667 4.667 2.093 4.667 4.667-2.093 4.667-4.667 4.667z"></path>
</svg>
<svg id="icon-video-volume-down" width="32" height="32" viewBox="0 0 32 32" x="240" y="0">
<path fill="#fff" d="M24.667 16c0-2.36-1.36-4.387-3.333-5.373v10.733c1.973-0.973 3.333-3 3.333-5.36zM6.667 12v8h5.333l6.667 6.667v-21.333l-6.667 6.667h-5.333z"></path>
</svg>
<svg id="icon-video-volume-muted" width="32" height="32" viewBox="0 0 32 32" x="288" y="0">
<path fill="#fff" d="M22 16c0-2.36-1.36-4.387-3.333-5.373v2.947l3.267 3.267c0.040-0.267 0.067-0.547 0.067-0.84zM25.333 16c0 1.253-0.267 2.427-0.72 3.52l2.013 2.013c0.88-1.653 1.373-3.533 1.373-5.533 0-5.707-3.987-10.48-9.333-11.693v2.747c3.853 1.147 6.667 4.72 6.667 8.947zM5.693 4l-1.693 1.693 6.307 6.307h-6.307v8h5.333l6.667 6.667v-8.973l5.667 5.667c-0.893 0.693-1.893 1.24-3 1.573v2.747c1.84-0.413 3.507-1.267 4.92-2.413l2.72 2.733 1.693-1.693-22.307-22.307zM16 5.333l-2.787 2.787 2.787 2.787v-5.573z"></path>
</svg>
<svg id="icon-video-volume-up" width="32" height="32" viewBox="0 0 32 32" x="336" y="0">
<path fill="#fff" d="M4 12v8h5.333l6.667 6.667v-21.333l-6.667 6.667h-5.333zM22 16c0-2.36-1.36-4.387-3.333-5.373v10.733c1.973-0.973 3.333-3 3.333-5.36zM18.667 4.307v2.747c3.853 1.147 6.667 4.72 6.667 8.947s-2.813 7.8-6.667 8.947v2.747c5.347-1.213 9.333-5.987 9.333-11.693s-3.987-10.48-9.333-11.693z"></path>
</svg>
</svg>
